<svg width="720" height="404" viewBox="0 0 720 404" fill="none" xmlns="http://www.w3.org/2000/svg">
<mask id="mask0" mask-type="alpha" maskUnits="userSpaceOnUse" x="0" y="0" width="720" height="404">
<rect width="720" height="404" fill="#C4C4C4"/>
</mask>
<g mask="url(#mask0)">
<rect x="524.892" y="304.132" width="208.385" height="110.053" rx="10" fill="#C4DAFA"/>
<rect x="524.892" y="304.132" width="208.385" height="110.053" rx="10" fill="url(#paint0_linear)"/>
<rect x="466" y="29" width="165.349" height="224.339" rx="10" fill="#C4DAFA"/>
<rect x="466" y="29" width="165.349" height="224.339" rx="10" fill="url(#paint1_linear)"/>
<rect x="683.446" y="69.2119" width="158.554" height="224.339" rx="10" fill="#C4DAFA"/>
<rect x="683.446" y="69.2119" width="158.554" height="224.339" rx="10" fill="url(#paint2_linear)"/>
<path d="M580.812 331.946C580.98 327.981 580.879 323.607 579.396 323.041V269.358C579.396 263.316 574.136 258.407 567.663 258.407H548.95C542.477 258.407 537.217 263.316 537.217 269.358V323.041H537.082C537.082 323.041 526.934 329.114 528.35 333.771C528.586 334.558 529.058 335.093 529.496 335.47C534.385 339.876 546.388 338.271 560.043 338.522C571.708 338.743 577.744 340.19 580.104 336.729C581.216 335.187 581.082 333.299 580.812 331.946Z" fill="#F6F6F6"/>
<path d="M580.813 331.946C580.981 327.981 580.88 323.607 579.397 323.041V269.358C579.397 263.316 574.137 258.407 567.663 258.407H548.951C542.477 258.407 538.057 263.316 538.057 269.358L541.745 326.108H541.61C541.61 326.108 526.934 329.114 528.35 333.771C528.586 334.558 529.059 335.093 529.497 335.47C534.386 339.876 546.389 338.271 560.044 338.522C571.709 338.743 577.744 340.19 580.105 336.729C581.217 335.187 581.082 333.299 580.813 331.946Z" fill="white"/>
<path d="M550.063 160.859L546.152 161.237C542.376 165.863 538.633 170.488 534.891 175.145C527.203 184.774 519.583 194.466 512.065 204.189C510.986 196.417 509.873 188.645 508.794 180.841C508.54 179.001 508.289 178.009 508.289 178.009C511.829 176.121 517.797 171.369 519.246 167.971C522.112 166.87 524.873 166.231 524 164.195C523.326 162.622 519.078 159.569 514.695 161.457C513.144 160.356 511.66 159.443 510.952 159.003C511.761 159.003 513.346 158.908 516.246 158.625C524.506 157.807 527.406 149.405 526.158 146.825C524.911 144.245 505.794 154.094 502.152 155.793C498.511 157.492 491.195 179.708 491.195 179.708C490.385 183.642 480.473 236.915 501.175 247.394C502.591 248.117 507.243 250.477 512.368 249.345C512.368 249.345 519.28 247.834 532.632 222.629L558.458 191.162L550.063 160.859Z" fill="#F6F6F6"/>
<path d="M550.063 160.859L532.632 209.138C528.855 213.763 525.906 192.026 523.843 192.026C521.929 192.026 519.583 194.466 512.065 204.189C510.986 196.417 509.873 188.645 508.794 180.841C508.54 179.001 508.289 178.009 508.289 178.009C511.829 176.121 517.797 171.369 519.246 167.971C522.112 166.87 524.873 166.231 524 164.195C523.326 162.622 519.078 159.569 514.695 161.457C513.144 160.356 511.66 159.443 510.952 159.003C511.761 159.003 513.346 158.908 516.246 158.625C524.506 157.807 527.406 149.405 526.158 146.825C524.911 144.245 505.794 154.094 502.152 155.793C498.511 157.492 491.195 179.708 491.195 179.708C490.385 183.642 480.473 236.915 501.175 247.394C502.591 248.117 507.243 250.477 512.368 249.345C512.368 249.345 519.28 247.834 532.632 222.629L558.458 191.162L550.063 160.859Z" fill="white"/>
<path d="M638.669 271.182C644.502 266.053 649.997 260.137 655.055 253.434C647.368 195.315 643.153 170.708 641.332 167.372C640.658 166.145 638.365 162.086 635.769 156.264C631.352 146.352 628.824 137.604 627.307 131.154C635.567 126.339 636.208 117.151 632.431 112.651C626.261 105.319 614.562 113.029 614.562 113.029C614.562 113.029 597.569 96.2252 577.677 99.3719C577.677 99.3719 572.855 89.1451 563.314 95.9105C563.314 95.9105 559.638 98.3964 560.751 103.179C560.751 103.179 539.341 112.116 534.925 132.758C534.925 132.758 519.685 135.213 520.966 148.177C522.247 161.11 533.846 172.47 542.949 174.767C540.488 179.109 538.161 183.798 536.071 188.864C526.158 212.779 523.035 236.208 526.866 253.497C530.785 271.182 535.7 281.125 553.334 290.44C565.202 296.702 580.542 297.866 596.49 293.964V323.04C596.49 323.04 585.398 329.144 586.814 333.801C587.05 334.588 587.555 335.123 587.994 335.5C592.95 339.906 605.121 338.301 618.945 338.553C630.779 338.773 636.882 340.221 639.276 336.759C640.355 335.217 640.22 333.361 639.95 331.976C640.119 328.137 640.018 323.889 638.635 323.134C638.635 323.102 638.635 323.102 638.635 323.071V271.182H638.669Z" fill="#F6F6F6"/>
<path d="M639.215 271.182C645.048 266.053 650.544 260.137 655.601 253.434C647.914 195.315 643.7 170.708 641.879 167.372C641.205 166.145 638.912 162.086 636.316 156.264C631.899 146.352 629.37 137.604 627.853 131.154C636.114 126.339 636.754 117.151 632.978 112.651C626.808 105.319 615.108 113.029 615.108 113.029C615.108 113.029 598.116 96.2252 578.223 99.3719C578.223 99.3719 573.402 89.1451 563.86 95.9105C563.86 95.9105 560.185 98.3964 561.298 103.179C561.298 103.179 539.888 112.116 535.471 132.758C535.471 132.758 520.231 135.213 521.513 148.177C522.794 161.11 534.392 172.47 543.496 174.767C541.034 179.109 537.14 185.937 535.049 191.004C525.137 214.919 530.676 234.535 537.509 253.434C540.885 262.77 555.549 278.421 566.209 284.733C574.956 289.913 585.889 294.183 597.037 293.161L600.317 323.04V323.553C600.317 323.553 585.944 329.144 587.36 333.801C587.596 334.588 588.102 335.123 588.54 335.5C593.496 339.906 605.668 338.301 619.492 338.553C631.326 338.773 637.428 340.221 639.822 336.759C640.901 335.217 640.766 333.361 640.497 331.976C640.665 328.137 640.564 323.889 639.182 323.134C639.182 323.102 639.182 323.102 639.182 323.071V271.182H639.215Z" fill="white"/>
<path d="M551.579 123.536C554.056 123.536 556.063 121.663 556.063 119.351C556.063 117.04 554.056 115.166 551.579 115.166C549.103 115.166 547.095 117.04 547.095 119.351C547.095 121.663 549.103 123.536 551.579 123.536Z" fill="#283F70"/>
<path d="M581.452 130.524C584.338 130.524 586.678 128.34 586.678 125.646C586.678 122.953 584.338 120.769 581.452 120.769C578.565 120.769 576.226 122.953 576.226 125.646C576.226 128.34 578.565 130.524 581.452 130.524Z" fill="#283F70"/>
<path d="M551.87 133.29C551.87 133.29 552.359 131.112 562.63 132.432C572.901 133.751 571.314 138.4 571.314 138.4C571.314 138.4 568.405 143.755 561.963 143.755C557.753 143.755 550.608 137.184 551.87 133.29Z" fill="#283F70"/>
<path d="M553.973 152.425C553.973 152.425 576.529 155.288 583.272 145.344C583.238 146.005 583.08 146.74 582.608 147.841C581.242 151.03 578.508 152.954 572.222 154.482C568.985 155.268 561.147 155.513 558.555 154.482C556.498 153.663 554.917 153.211 553.973 152.425Z" fill="#283F70"/>
<path d="M629.767 253.434C629.262 261.427 635.162 268.003 641.872 268.822C649.694 269.797 658.426 262.969 658.089 253.434C662.843 231.816 659.269 216.775 655.695 206.58C643.591 172.029 636.207 172.407 636.207 172.407H621.743C621.743 172.407 633.004 233.862 629.767 253.434Z" fill="#F6F6F6"/>
<path d="M634.543 250.256C634.037 258.249 638.101 264.669 641.649 266.09C649.303 269.155 656.962 265.465 659.689 253.065C664.443 231.447 659.269 216.265 655.695 206.07C643.591 171.519 636.207 171.897 636.207 171.897H621.743C621.743 171.897 637.779 230.683 634.543 250.256Z" fill="white"/>
<path d="M574.89 98.766C574.768 96.4641 576.692 91.6752 577.67 89.5685C580.384 87.3833 613.232 99.5153 614.484 100.023C615.737 100.53 614.034 105.347 611.847 108.685C609.661 112.022 601.108 112.767 593.155 110.843C583.78 108.575 575.043 101.643 574.89 98.766Z" fill="#132858"/>
<path d="M574.89 98.766C574.768 96.4641 576.692 91.6752 577.67 89.5685C580.384 87.3833 613.232 99.5153 614.484 100.023C615.737 100.53 614.034 105.347 611.847 108.685C609.661 112.022 601.108 112.767 593.155 110.843C583.78 108.575 575.043 101.643 574.89 98.766Z" fill="url(#paint3_linear)"/>
<path d="M565.161 79.2942C565.151 77.8875 588.035 79.9378 599.478 81.1388C602.836 81.4821 629.891 96.3068 629.643 98.1791C629.395 100.051 602.752 103.069 594.664 101.327C590.525 100.436 565.173 81.0525 565.161 79.2942Z" fill="#132858"/>
<path d="M565.161 79.2942C565.151 77.8875 588.035 79.9378 599.478 81.1388C602.836 81.4821 629.891 96.3068 629.643 98.1791C629.395 100.051 602.752 103.069 594.664 101.327C590.525 100.436 565.173 81.0525 565.161 79.2942Z" fill="url(#paint4_linear)"/>
<path d="M626.183 111.257C625.982 111.148 625.404 101.295 625.025 97.9431C624.903 96.8806 624.562 96.9566 625.384 97.1036C626.206 97.2505 626.887 110.75 627.005 111.404C627.123 112.057 626.435 111.392 626.183 111.257Z" fill="#132858"/>
<path d="M626.183 111.257C625.982 111.148 625.404 101.295 625.025 97.9431C624.903 96.8806 624.562 96.9566 625.384 97.1036C626.206 97.2505 626.887 110.75 627.005 111.404C627.123 112.057 626.435 111.392 626.183 111.257Z" fill="url(#paint5_linear)"/>
<path d="M627.074 109.98C626.77 109.409 626.163 109.373 625.879 109.789C624.965 110.924 623.721 117.623 623.942 119.229C624.164 120.835 624.547 121.402 625.56 121.644C626.574 121.886 626.759 119.773 626.801 118.9C626.842 118.026 627.996 119.091 628.848 118.553C629.7 118.016 627.377 110.551 627.074 109.98Z" fill="#132858"/>
<path d="M627.074 109.98C626.77 109.409 626.163 109.373 625.879 109.789C624.965 110.924 623.721 117.623 623.942 119.229C624.164 120.835 624.547 121.402 625.56 121.644C626.574 121.886 626.759 119.773 626.801 118.9C626.842 118.026 627.996 119.091 628.848 118.553C629.7 118.016 627.377 110.551 627.074 109.98Z" fill="url(#paint6_linear)"/>
<path d="M490 125.001C378 96.5011 444.285 247.76 357.5 304C268 362 131.999 328.501 142.5 237.001" stroke="#FFD15C" stroke-width="2" stroke-linejoin="round" stroke-dasharray="10 5"/>
<g filter="url(#filter0_d)">
<rect x="18" y="35" width="279" height="193.616" rx="20" fill="white"/>
</g>
<path opacity="0.1" fill-rule="evenodd" clip-rule="evenodd" d="M157.5 158.866C180.746 158.866 199.59 140.022 199.59 116.776C199.59 93.53 180.746 74.6854 157.5 74.6854C134.254 74.6854 115.409 93.53 115.409 116.776C115.409 140.022 134.254 158.866 157.5 158.866Z" stroke="#50B5FF" stroke-width="3"/>
<path fill-rule="evenodd" clip-rule="evenodd" d="M155.095 104.75H159.905C161.233 104.75 162.31 105.827 162.31 107.155V115.573H167.12C168.449 115.573 169.526 116.65 169.526 117.978V127.599C169.526 128.263 168.987 128.802 168.323 128.802H161.107H153.892H146.676C146.012 128.802 145.474 128.263 145.474 127.599V112.567C145.474 111.239 146.551 110.162 147.879 110.162H152.689V107.155C152.689 105.827 153.766 104.75 155.095 104.75ZM155.095 112.567V126.397H159.905V117.978V107.155H155.095V112.567ZM152.689 112.567H147.879V126.397H152.689V112.567ZM162.31 126.397H167.12V117.978H162.31V126.397Z" fill="#50B5FF"/>
<path d="M115.409 116.776C115.409 140.022 134.254 158.866 157.5 158.866V158.866C180.746 158.866 199.59 140.022 199.59 116.776C199.59 93.53 180.746 74.6854 157.5 74.6854" stroke="#F1E21A" stroke-width="5" stroke-linecap="round" stroke-linejoin="round"/>
<path d="M126.359 185.692V184.144H129.251V192.892H127.523V185.692H126.359ZM133.731 189.544C133.731 188.872 133.863 188.276 134.127 187.756C134.399 187.236 134.767 186.836 135.231 186.556C135.695 186.276 136.211 186.136 136.779 186.136C137.211 186.136 137.623 186.232 138.015 186.424C138.407 186.608 138.719 186.856 138.951 187.168V184.012H140.655V192.892H138.951V191.908C138.743 192.236 138.451 192.5 138.075 192.7C137.699 192.9 137.263 193 136.767 193C136.207 193 135.695 192.856 135.231 192.568C134.767 192.28 134.399 191.876 134.127 191.356C133.863 190.828 133.731 190.224 133.731 189.544ZM138.963 189.568C138.963 189.16 138.883 188.812 138.723 188.524C138.563 188.228 138.347 188.004 138.075 187.852C137.803 187.692 137.511 187.612 137.199 187.612C136.887 187.612 136.599 187.688 136.335 187.84C136.071 187.992 135.855 188.216 135.687 188.512C135.527 188.8 135.447 189.144 135.447 189.544C135.447 189.944 135.527 190.296 135.687 190.6C135.855 190.896 136.071 191.124 136.335 191.284C136.607 191.444 136.895 191.524 137.199 191.524C137.511 191.524 137.803 191.448 138.075 191.296C138.347 191.136 138.563 190.912 138.723 190.624C138.883 190.328 138.963 189.976 138.963 189.568ZM141.963 189.544C141.963 188.872 142.095 188.276 142.359 187.756C142.631 187.236 142.995 186.836 143.451 186.556C143.915 186.276 144.431 186.136 144.999 186.136C145.495 186.136 145.927 186.236 146.295 186.436C146.671 186.636 146.971 186.888 147.195 187.192V186.244H148.887V192.892H147.195V191.92C146.979 192.232 146.679 192.492 146.295 192.7C145.919 192.9 145.483 193 144.987 193C144.427 193 143.915 192.856 143.451 192.568C142.995 192.28 142.631 191.876 142.359 191.356C142.095 190.828 141.963 190.224 141.963 189.544ZM147.195 189.568C147.195 189.16 147.115 188.812 146.955 188.524C146.795 188.228 146.579 188.004 146.307 187.852C146.035 187.692 145.743 187.612 145.431 187.612C145.119 187.612 144.831 187.688 144.567 187.84C144.303 187.992 144.087 188.216 143.919 188.512C143.759 188.8 143.679 189.144 143.679 189.544C143.679 189.944 143.759 190.296 143.919 190.6C144.087 190.896 144.303 191.124 144.567 191.284C144.839 191.444 145.127 191.524 145.431 191.524C145.743 191.524 146.035 191.448 146.307 191.296C146.579 191.136 146.795 190.912 146.955 190.624C147.115 190.328 147.195 189.976 147.195 189.568ZM152.308 187.276C152.524 186.924 152.804 186.648 153.148 186.448C153.5 186.248 153.9 186.148 154.348 186.148V187.912H153.904C153.376 187.912 152.976 188.036 152.704 188.284C152.44 188.532 152.308 188.964 152.308 189.58V192.892H150.628V186.244H152.308V187.276ZM156.432 185.452C156.136 185.452 155.888 185.36 155.688 185.176C155.496 184.984 155.4 184.748 155.4 184.468C155.4 184.188 155.496 183.956 155.688 183.772C155.888 183.58 156.136 183.484 156.432 183.484C156.728 183.484 156.972 183.58 157.164 183.772C157.364 183.956 157.464 184.188 157.464 184.468C157.464 184.748 157.364 184.984 157.164 185.176C156.972 185.36 156.728 185.452 156.432 185.452ZM157.26 186.244V192.892H155.58V186.244H157.26ZM161.583 185.692V184.144H164.475V192.892H162.747V185.692H161.583ZM166.235 188.404C166.235 187.02 166.483 185.936 166.979 185.152C167.483 184.368 168.315 183.976 169.475 183.976C170.635 183.976 171.463 184.368 171.959 185.152C172.463 185.936 172.715 187.02 172.715 188.404C172.715 189.796 172.463 190.888 171.959 191.68C171.463 192.472 170.635 192.868 169.475 192.868C168.315 192.868 167.483 192.472 166.979 191.68C166.483 190.888 166.235 189.796 166.235 188.404ZM171.059 188.404C171.059 187.812 171.019 187.316 170.939 186.916C170.867 186.508 170.715 186.176 170.483 185.92C170.259 185.664 169.923 185.536 169.475 185.536C169.027 185.536 168.687 185.664 168.455 185.92C168.231 186.176 168.079 186.508 167.999 186.916C167.927 187.316 167.891 187.812 167.891 188.404C167.891 189.012 167.927 189.524 167.999 189.94C168.071 190.348 168.223 190.68 168.455 190.936C168.687 191.184 169.027 191.308 169.475 191.308C169.923 191.308 170.263 191.184 170.495 190.936C170.727 190.68 170.879 190.348 170.951 189.94C171.023 189.524 171.059 189.012 171.059 188.404ZM174.092 188.404C174.092 187.02 174.34 185.936 174.836 185.152C175.34 184.368 176.172 183.976 177.332 183.976C178.492 183.976 179.32 184.368 179.816 185.152C180.32 185.936 180.572 187.02 180.572 188.404C180.572 189.796 180.32 190.888 179.816 191.68C179.32 192.472 178.492 192.868 177.332 192.868C176.172 192.868 175.34 192.472 174.836 191.68C174.34 190.888 174.092 189.796 174.092 188.404ZM178.916 188.404C178.916 187.812 178.876 187.316 178.796 186.916C178.724 186.508 178.572 186.176 178.34 185.92C178.116 185.664 177.78 185.536 177.332 185.536C176.884 185.536 176.544 185.664 176.312 185.92C176.088 186.176 175.936 186.508 175.856 186.916C175.784 187.316 175.748 187.812 175.748 188.404C175.748 189.012 175.784 189.524 175.856 189.94C175.928 190.348 176.08 190.68 176.312 190.936C176.544 191.184 176.884 191.308 177.332 191.308C177.78 191.308 178.12 191.184 178.352 190.936C178.584 190.68 178.736 190.348 178.808 189.94C178.88 189.524 178.916 189.012 178.916 188.404ZM181.95 188.404C181.95 187.02 182.198 185.936 182.694 185.152C183.198 184.368 184.03 183.976 185.19 183.976C186.35 183.976 187.178 184.368 187.674 185.152C188.178 185.936 188.43 187.02 188.43 188.404C188.43 189.796 188.178 190.888 187.674 191.68C187.178 192.472 186.35 192.868 185.19 192.868C184.03 192.868 183.198 192.472 182.694 191.68C182.198 190.888 181.95 189.796 181.95 188.404ZM186.774 188.404C186.774 187.812 186.734 187.316 186.654 186.916C186.582 186.508 186.43 186.176 186.198 185.92C185.974 185.664 185.638 185.536 185.19 185.536C184.742 185.536 184.402 185.664 184.17 185.92C183.946 186.176 183.794 186.508 183.714 186.916C183.642 187.316 183.606 187.812 183.606 188.404C183.606 189.012 183.642 189.524 183.714 189.94C183.786 190.348 183.938 190.68 184.17 190.936C184.402 191.184 184.742 191.308 185.19 191.308C185.638 191.308 185.978 191.184 186.21 190.936C186.442 190.68 186.594 190.348 186.666 189.94C186.738 189.524 186.774 189.012 186.774 188.404Z" fill="#171725"/>
</g>
<defs>
<filter id="filter0_d" x="8" y="35" width="299" height="213.616" filterUnits="userSpaceOnUse" color-interpolation-filters="sRGB">
<feFlood flood-opacity="0" result="BackgroundImageFix"/>
<feColorMatrix in="SourceAlpha" type="matrix" values="0 0 0 0 0 0 0 0 0 0 0 0 0 0 0 0 0 0 127 0"/>
<feOffset dy="10"/>
<feGaussianBlur stdDeviation="5"/>
<feColorMatrix type="matrix" values="0 0 0 0 0.772549 0 0 0 0 0.858824 0 0 0 0 0.980392 0 0 0 1 0"/>
<feBlend mode="normal" in2="BackgroundImageFix" result="effect1_dropShadow"/>
<feBlend mode="normal" in="SourceGraphic" in2="effect1_dropShadow" result="shape"/>
</filter>
<linearGradient id="paint0_linear" x1="629.084" y1="414.185" x2="629.084" y2="304.132" gradientUnits="userSpaceOnUse">
<stop stop-color="white"/>
<stop offset="1" stop-color="white" stop-opacity="0"/>
</linearGradient>
<linearGradient id="paint1_linear" x1="466" y1="154.926" x2="576.986" y2="153.714" gradientUnits="userSpaceOnUse">
<stop stop-color="white"/>
<stop offset="1" stop-color="white" stop-opacity="0"/>
</linearGradient>
<linearGradient id="paint2_linear" x1="842" y1="200.429" x2="669.925" y2="210.122" gradientUnits="userSpaceOnUse">
<stop stop-color="white"/>
<stop offset="1" stop-color="white" stop-opacity="0"/>
</linearGradient>
<linearGradient id="paint3_linear" x1="587.485" y1="110.075" x2="593.647" y2="92.1993" gradientUnits="userSpaceOnUse">
<stop stop-color="#F1E21A"/>
<stop offset="1" stop-color="#DDCE07"/>
</linearGradient>
<linearGradient id="paint4_linear" x1="589.021" y1="105.239" x2="582.974" y2="118.538" gradientUnits="userSpaceOnUse">
<stop stop-color="#F1E21A"/>
<stop offset="1" stop-color="#DDCE07"/>
</linearGradient>
<linearGradient id="paint5_linear" x1="630.602" y1="114.513" x2="628.985" y2="95.4913" gradientUnits="userSpaceOnUse">
<stop stop-color="#F1E21A"/>
<stop offset="1" stop-color="#DDCE07"/>
</linearGradient>
<linearGradient id="paint6_linear" x1="629.752" y1="123.139" x2="625.69" y2="108.739" gradientUnits="userSpaceOnUse">
<stop stop-color="#F1E21A"/>
<stop offset="1" stop-color="#DDCE07"/>
</linearGradient>
</defs>
</svg>
